<?xml version="1.0" encoding="UTF-8" standalone="no"?>
<!DOCTYPE svg PUBLIC "-//W3C//DTD SVG 1.1//EN" "http://www.w3.org/Graphics/SVG/1.1/DTD/svg11.dtd">
<!-- Created with Vectornator (http://vectornator.io/) -->
<svg height="100%" stroke-miterlimit="10" style="fill-rule:nonzero;clip-rule:evenodd;stroke-linecap:round;stroke-linejoin:round;" version="1.1" viewBox="0 0 512 512" width="100%" xml:space="preserve" xmlns="http://www.w3.org/2000/svg" xmlns:vectornator="http://vectornator.io" xmlns:xlink="http://www.w3.org/1999/xlink">
<defs/>
<g id="Untitled" vectornator:layerName="Untitled">
<g opacity="1">
<path d="M363.1 41.6C338.8 48.1 322 70.9 322 97.1C322 117.3 331.9 134.4 349.6 144.8C359.2 150.4 366.5 152.4 378 152.4C394.2 152.4 406.8 147.2 418.3 135.8C423.5 130.6 425 128.4 425 126.2C425 121.2 423 120.5 409.6 120.5C398.5 120.5 397.1 120.3 392 117.8C383.2 113.5 378.5 108.8 374.3 100.2C370.8 93.2 370.5 91.9 370.6 84.6C370.7 73.3 373.5 66.4 380.9 59.1C384 56 387.8 52.7 389.3 51.7C392.8 49.4 393.1 43.9 389.8 41.6C386.9 39.5 370.7 39.5 363.1 41.6ZM367 54.5C367 54.8 365.9 56.8 364.5 58.8C352.7 76.7 356.2 103.3 372.4 119.6C379.1 126.2 389 131.8 395.9 132.7C398.1 133 400 133.6 400 134.1C400 135.7 388.2 139.3 381.2 139.8C354 141.7 330.3 116.2 334.8 89.9C336.5 80.5 342 70.1 348.3 64.4C354.1 59.1 367 52.3 367 54.5Z" fill="#ffffff" fill-rule="nonzero" opacity="1" stroke="none"/>
<path d="M190.8 42.1C189.9 42.6 186.6 47.4 183.6 52.8L178.1 62.5L168.5 67.8C153.2 76.3 153.2 79.6 168.7 88.4C178.3 93.8 178.6 94.1 182.4 101.2C188.2 112.1 190.6 115 193.9 115C197.4 115 198.5 113.7 204.8 102.6C209.8 93.8 209.8 93.8 219.5 88.3C234.8 79.6 234.8 76.4 219.5 67.7L209.8 62.2L204.8 53.4C198.2 41.5 195.4 39.3 190.8 42.1ZM197.5 66.3C199.7 70 201.9 72.3 205.7 74.5C208.6 76.1 211 77.8 211 78.1C211 78.4 209.2 79.5 207 80.5C202.7 82.5 198.7 86.5 195.7 92L193.9 95.4L190.6 89.9C188.3 86.1 185.9 83.7 182.2 81.5C179.4 79.9 177 78.2 177 77.9C177 77.6 179.3 76.1 182 74.6C185.9 72.5 187.8 70.5 190.1 66.4C191.8 63.4 193.5 61 193.8 61C194.2 61.1 195.9 63.4 197.5 66.3Z" fill="#ffffff" fill-rule="nonzero" opacity="1" stroke="none"/>
<path d="M67.3 113.2C66.2 114.5 63.9 118.1 62.1 121.2C59.6 125.7 57.8 127.5 53.2 130C39.6 137.7 39.6 141.3 53.3 149C58.1 151.7 59.6 153.3 62.6 158.6C67.1 166.7 68.4 168 71.9 168C75.2 168 76.1 167.1 81 158.7C83.9 153.7 85.7 151.9 90.7 149C99.6 143.8 100.1 143.2 99.8 139.1C99.5 135.8 98.9 135.2 91.9 131C85 127 83.9 125.9 80.6 119.8C75.6 110.7 71.5 108.6 67.3 113.2ZM75.7 143.2C73.6 145.2 71.7 146.8 71.5 146.8C71.3 146.8 69.3 145.1 67 142.9L62.9 139L65.3 137.9C66.6 137.3 68.5 135.5 69.4 133.9L71.1 131L75.3 135.2L79.5 139.5L75.7 143.2Z" fill="#ffffff" fill-rule="nonzero" opacity="1" stroke="none"/>
<path d="M255.8 123.7C255 124.7 252.8 128.3 250.9 131.6C248 136.9 246.7 138.3 241.5 141C233.7 145.2 232 146.8 232 149.6C232 153.7 233.2 155.1 240.6 159.1C247.4 162.8 248.2 163.6 252 170.5C256.2 178.2 258.5 179.9 262.9 178.5C264.2 178.1 266.7 174.9 269 170.6C272.4 164.5 273.8 162.9 278 160.6C292.3 152.8 292.5 148.7 278.8 141C274.1 138.4 272.5 136.8 269.5 131.5C267.6 128 265.3 124.4 264.4 123.6C262.3 121.5 257.7 121.6 255.8 123.7ZM266.9 148.9L269.3 150.8L266.4 152.3C264.7 153.2 262.9 155 262.2 156.4L261 159L256.8 154.7L252.5 150.5L256.5 146.4L260.5 142.4L262.5 144.7C263.6 146 265.6 147.9 266.9 148.9Z" fill="#ffffff" fill-rule="nonzero" opacity="1" stroke="none"/>
<path d="M143.5 150.1C141.8 150.5 139.3 152.2 137.8 153.7C135.2 156.5 86.4 227.4 84 231.9C82.3 235.3 83.2 243.1 85.9 246.8C87.1 248.5 89.6 250.5 91.5 251.1C93.4 251.8 95 252.7 95 253.1C95 253.5 87 267.1 77.3 283.2L59.5 312.5L59.5 318.7C59.5 324.4 59.8 325.2 62.9 328.4C64.8 330.4 67 332 67.6 332C68.3 332 69.1 332.4 69.5 332.9C69.8 333.4 61.9 346.4 51.9 361.7C41.9 377 33.3 390.9 32.8 392.7C31 399.3 35.4 407.3 42.3 409.9C44.1 410.6 59.9 411 87.1 411L129 411L129 439.4C129 464.9 129.2 468 130.8 469.9L132.5 472L302.5 471.8L472.5 471.5L476.4 459.6C479.9 448.8 480.2 447.4 478.9 445.2C476 440 469.9 440.8 467 446.6L465.5 449.7L395 334.8C356.2 271.5 323.9 218.7 323.2 217.4C322.1 215.3 322.7 213.9 331 200.3C336.4 191.4 340 184.5 340 182.8C340 176.8 332.9 174.8 329 179.7C327.7 181.3 324 187.1 320.5 192.8L314.3 203L306.8 190.8C302.5 183.6 298.3 177.9 296.7 177C294.3 175.7 293.9 175.7 291.3 177.6C286.6 181.1 287.2 183.2 297.4 199.9L306.8 215.2L301.6 223.9C287 247.9 232.6 336.7 231.5 338.3C230.3 339.9 230.1 339.8 228.2 336.8L226.1 333.5L229.6 331.7C236 328.4 239.3 320 236.6 313.5C235.4 310.7 208.4 265 202.2 255.3C200.9 253.2 201 253 204.2 251.7C210.6 249 214.5 241.4 213 234.7C212.3 231.2 164.2 160.2 158.7 154.2C157 152.4 154 150.5 152 150C148 148.9 147.6 148.9 143.5 150.1ZM175.3 200C189.4 220.6 200.9 237.9 200.7 238.5C200.5 239.1 192.5 239.6 178.7 239.8L157 240L159.7 235.2C162.4 230.4 162.4 230.2 160.7 227.6C156.7 221.6 152.9 222.8 146.2 232.5L141 240L134.4 240C129.5 240 128.1 239.7 128.6 238.7C129 238.1 132 233.7 135.2 229C141.7 219.6 142.2 216.9 137.8 213.7C133.5 210.5 131.2 212.4 121.3 226.9L112.5 240L104 239.7C97.1 239.5 95.5 239.2 95.6 238C95.7 237.1 104.8 223.2 116 207C146.1 163.3 147.1 161.9 148.4 162.3C149 162.5 161.1 179.5 175.3 200ZM386 344.5C424.1 406.6 455.5 458.1 455.7 458.8C456.1 459.8 449.1 460 421 459.8L385.8 459.5L352.2 404.5C320.6 353 318.3 349.5 315.5 349.2C311.1 348.8 262.2 362.4 259.9 364.7C258.6 366.1 256.1 377.6 249.6 412.8C244.9 438.2 241 459.2 241 459.5C241 459.8 225.7 460 207 460C188.1 460 173 459.6 173 459.1C173 458.4 299.7 250.9 311.2 232.7C314 228.4 314.4 228.1 315.5 229.7C316.2 230.7 347.9 282.3 386 344.5ZM182.3 254.4C187.7 256.7 190.7 260.9 208.1 290.2C220.7 311.4 224.6 318.7 223.8 319.7C223 320.7 213.3 321 177.9 321C153.2 321 133 320.7 133 320.2C133 319.8 133.9 318.1 135 316.5C138.2 311.6 137.6 307.4 133.3 305.1C129.6 303.2 126.8 305.2 122 313.4L117.6 321L110.8 321L103.9 321L105.6 317.8C106.5 316.1 108.9 311.9 111 308.5C116.1 300.1 116.4 298.8 113.9 295.7C111.5 292.5 107.1 292.1 104.8 294.7C104 295.7 100 302 96 308.7L88.7 321L81 321C75.8 321 72.9 320.6 72.2 319.7C71.3 318.7 75.2 311.6 88.1 289.9C105.8 260.5 108.1 257.2 113.4 254.6C117.7 252.4 177.3 252.2 182.3 254.4ZM208.6 335.6C212.5 337.4 217.4 342.8 220.7 348.7L222.9 352.6L208.9 375.3L194.8 398L150.9 398L106.9 398L109.5 394.3C112.6 389.6 112.7 385.6 109.8 383.6C104.9 380.1 102.2 381.8 95.6 392.2L92 398L85 398L77.9 398L84.1 388.8C90.5 379.4 91.6 375.6 89 372.5C88.1 371.4 86.4 371 84.1 371.2C80.7 371.5 80 372.2 71.6 384.7L62.6 398L54.4 398C49.7 398 45.8 397.5 45.5 397C44.8 395.9 50.2 387.1 70.2 357C80.1 342.1 83.3 338.1 86.5 336.3L90.5 334L147.8 334C198.8 334 205.6 334.2 208.6 335.6ZM292.4 378.2C288.3 385 279.2 399.8 272.3 411.2C265.3 422.6 259.5 431.8 259.4 431.7C259 431.3 269 377.6 269.8 375.6C270.5 374.1 273.9 372.7 283.6 369.9C290.7 367.9 297.3 366.2 298.2 366.1C299.5 366 298 369.2 292.4 378.2ZM342.4 413.1C357.6 437.9 370 458.6 370 459.1C370 459.6 347.9 460 313.9 460C280.9 460 258 459.6 258.2 459.1C259 456.9 313.6 368.1 314.1 368C314.5 368 327.2 388.3 342.4 413.1ZM154 435.5L154 460L148 460L142 460L142 435.5L142 411L148 411L154 411L154 435.5ZM178.8 424.2C174.3 431.5 169.9 438.8 168.8 440.5C167 443.5 167 443.4 167 427.2L167 411L177 411L186.9 411L178.8 424.2Z" fill="#ffffff" fill-rule="nonzero" opacity="1" stroke="none"/>
<path d="M304.4 282.6C298.4 284.7 292.5 290.3 289.4 296.7C280.4 315.1 293.7 336.5 314 336.4C331.1 336.3 343.3 322.9 341.7 305.8C340.1 288 321.7 276.5 304.4 282.6ZM324.7 298.3C327.9 301.4 328.4 302.6 328.8 307.7C329.1 312.6 328.8 314.1 326.8 317C318.9 328.8 300.8 324.1 299.3 309.9C298.8 304.5 301.2 299.5 306.1 296.2C308.9 294.2 310.4 293.9 315.3 294.2C320.4 294.6 321.6 295.1 324.7 298.3Z" fill="#ffffff" fill-rule="nonzero" opacity="1" stroke="none"/>
<path d="M413 173.3C411.7 174 408.9 177.6 406.8 181.5C403.4 187.7 402.1 188.9 396.7 191.9C388.5 196.4 387 197.8 387 201.1C387 204.2 390 207 397.7 211.2C401.6 213.3 403.4 215.1 406 219.7C411.3 229.2 413.8 231.2 418.4 229.4C419.3 229.1 421.8 225.5 424 221.4C427.5 215.1 428.9 213.7 433.8 210.9C447.8 203.1 447.6 198.3 433.2 191.1C430.3 189.6 428 187.4 426.2 184.3C419.5 172.9 417.3 171.1 413 173.3ZM421.7 199.6L424.5 201.8L421.9 203C420.5 203.6 418.5 205.5 417.6 207.2L415.8 210.2L413.4 206.7C412.1 204.7 410.1 202.8 408.9 202.5C407 201.9 407.2 201.5 410.9 198.1C413.2 196 415 193.7 415 192.9C415 192.1 415.9 192.8 416.9 194.4C418 196 420.1 198.3 421.7 199.6Z" fill="#ffffff" fill-rule="nonzero" opacity="1" stroke="none"/>
</g>
</g>
</svg>
